<svg xmlns="http://www.w3.org/2000/svg" xmlns:xlink="http://www.w3.org/1999/xlink" width="583" zoomAndPan="magnify" viewBox="0 0 437.25 189.749994" height="253" preserveAspectRatio="xMidYMid meet" version="1.0"><defs><g/><clipPath id="146ae64959"><path d="M 227.46875 27.109375 L 309.828125 27.109375 L 309.828125 101.980469 L 227.46875 101.980469 Z M 227.46875 27.109375 " clip-rule="nonzero"/></clipPath></defs><g clip-path="url(#146ae64959)"><path fill="aliceblue" d="M 307.625 34.476562 C 297.695312 34.476562 283.667969 35.308594 276.5 42.472656 C 273.398438 45.574219 271.847656 50.632812 272.25 56.359375 C 272.304688 57.117188 272.804688 57.761719 273.527344 58 C 274.246094 58.234375 275.039062 58.015625 275.53125 57.4375 C 279.515625 52.746094 284.46875 48.988281 290.265625 46.265625 C 290.757812 46.03125 291.339844 46.011719 291.871094 46.199219 C 292.335938 46.363281 292.699219 46.679688 292.890625 47.085938 C 293.285156 47.921875 293.160156 49.019531 291.847656 49.640625 C 291.773438 49.675781 291.707031 49.726562 291.628906 49.757812 C 291.605469 49.769531 291.574219 49.765625 291.550781 49.777344 C 277.269531 56.492188 270.246094 68.203125 267.058594 80.246094 C 264.734375 65.167969 259.824219 56.289062 255.183594 50.839844 C 251.828125 46.488281 248.527344 44.183594 246.621094 42.878906 C 246.265625 42.636719 245.195312 41.90625 244.753906 41.460938 C 244.027344 40.734375 244.027344 39.554688 244.753906 38.828125 C 245.480469 38.105469 246.664062 38.105469 247.472656 38.910156 C 247.671875 39.085938 247.988281 39.308594 248.390625 39.578125 L 248.722656 39.800781 C 251.417969 41.648438 256.441406 45.078125 260.894531 52.46875 C 261.292969 53.125 262.066406 53.480469 262.816406 53.339844 C 263.574219 53.203125 264.171875 52.621094 264.320312 51.863281 C 265.292969 46.898438 264.855469 39.527344 260.425781 35.097656 C 253.257812 27.9375 239.234375 27.109375 229.308594 27.109375 C 228.28125 27.109375 227.445312 27.941406 227.445312 28.972656 C 227.445312 38.898438 228.277344 52.925781 235.441406 60.09375 C 238.429688 63.082031 243.035156 64.421875 247.613281 64.421875 C 251.351562 64.421875 255.011719 63.488281 257.820312 61.867188 C 261.644531 69.792969 264.699219 81.636719 264.699219 99.753906 C 264.699219 100.78125 265.535156 101.617188 266.5625 101.617188 C 267.589844 101.617188 268.425781 100.78125 268.425781 99.753906 C 268.425781 89.648438 270.15625 77.515625 276.597656 67.53125 C 279.179688 70.054688 283.625 71.652344 288.550781 71.800781 C 288.796875 71.808594 289.039062 71.8125 289.28125 71.8125 C 294.285156 71.8125 298.707031 70.246094 301.488281 67.457031 C 308.65625 60.289062 309.484375 46.265625 309.484375 36.335938 C 309.488281 35.308594 308.65625 34.476562 307.625 34.476562 Z M 307.625 34.476562 " fill-opacity="1" fill-rule="nonzero"/></g><g fill="aliceblue" fill-opacity="1"><g transform="translate(30.974556, 134.412806)"><g><path d="M 48.21875 -25.859375 L 48.21875 -4.6875 C 48.21875 -3.40625 48.640625 -2.234375 49.5 -1.390625 C 50.34375 -0.421875 51.515625 0 52.796875 0 C 54.0625 0 55.140625 -0.421875 56.09375 -1.390625 C 56.9375 -2.234375 57.46875 -3.40625 57.46875 -4.6875 L 57.46875 -58.109375 C 57.46875 -59.390625 56.9375 -60.453125 56.09375 -61.421875 C 55.140625 -62.265625 54.0625 -62.796875 52.796875 -62.796875 C 51.515625 -62.796875 50.34375 -62.265625 49.5 -61.421875 C 48.640625 -60.453125 48.21875 -59.390625 48.21875 -58.109375 L 48.21875 -34.59375 L 16.171875 -34.59375 L 16.171875 -58.109375 C 16.171875 -59.390625 15.640625 -60.453125 14.796875 -61.421875 C 13.84375 -62.265625 12.765625 -62.796875 11.5 -62.796875 C 10.21875 -62.796875 9.046875 -62.265625 8.203125 -61.421875 C 7.34375 -60.453125 6.921875 -59.390625 6.921875 -58.109375 L 6.921875 -4.6875 C 6.921875 -3.40625 7.34375 -2.234375 8.203125 -1.390625 C 9.046875 -0.421875 10.21875 0 11.5 0 C 12.765625 0 13.84375 -0.421875 14.796875 -1.390625 C 15.640625 -2.234375 16.171875 -3.40625 16.171875 -4.6875 L 16.171875 -25.859375 Z M 48.21875 -25.859375 "/></g></g></g><g fill="aliceblue" fill-opacity="1"><g transform="translate(95.371809, 134.412806)"><g><path d="M 37.25 -8.828125 C 33.53125 -8.296875 30.96875 -8.09375 29.484375 -8.09375 C 24.0625 -8.09375 20.328125 -8.734375 18.3125 -10.21875 C 16.171875 -11.703125 14.796875 -14.15625 14.046875 -17.78125 L 37.578125 -17.78125 C 39.375 -17.78125 40.984375 -18.40625 42.359375 -19.6875 C 43.640625 -20.96875 44.390625 -22.453125 44.390625 -24.265625 C 44.390625 -30.015625 42.6875 -34.703125 39.28125 -38.3125 C 35.875 -41.9375 31.078125 -43.75 24.6875 -43.75 C 18.3125 -43.75 13.296875 -41.609375 9.90625 -37.46875 C 6.5 -33.3125 4.796875 -28 4.796875 -21.609375 C 4.796875 -15 6.59375 -9.6875 10.21875 -5.53125 C 13.84375 -1.390625 19.15625 0.640625 26.296875 0.640625 C 30.546875 0.640625 34.484375 0.3125 38 -0.53125 C 38.953125 -0.640625 39.8125 -1.0625 40.453125 -1.8125 C 41.078125 -2.546875 41.40625 -3.515625 41.40625 -4.578125 C 41.40625 -5.640625 40.984375 -6.703125 40.125 -7.5625 C 39.28125 -8.40625 38.3125 -8.828125 37.25 -8.828125 Z M 35.234375 -25.765625 L 14.046875 -25.765625 C 14.6875 -28.953125 15.75 -31.296875 17.453125 -32.78125 C 19.046875 -34.265625 21.390625 -35.015625 24.59375 -35.015625 C 27.5625 -35.015625 30.015625 -34.265625 31.71875 -33 C 33.421875 -31.609375 34.59375 -29.15625 35.234375 -25.765625 Z M 35.234375 -25.765625 "/></g></g></g><g fill="aliceblue" fill-opacity="1"><g transform="translate(145.080104, 134.412806)"><g><path d="M 34.484375 -4.578125 C 34.484375 -3.296875 34.90625 -2.125 35.765625 -1.28125 C 36.609375 -0.421875 37.78125 0 39.0625 0 C 40.34375 0 41.40625 -0.421875 42.359375 -1.28125 C 43.21875 -2.125 43.75 -3.296875 43.75 -4.578125 L 43.75 -26.078125 C 43.75 -31.71875 41.828125 -36.078125 38.21875 -39.171875 C 34.59375 -42.15625 29.484375 -43.75 22.890625 -43.75 C 18.203125 -43.75 14.375 -43.3125 11.5 -42.46875 C 9.46875 -41.9375 8.515625 -40.546875 8.515625 -38.421875 C 8.515625 -37.140625 8.828125 -36.1875 9.6875 -35.4375 C 10.4375 -34.703125 11.390625 -34.375 12.5625 -34.375 C 14.90625 -34.8125 16.921875 -35.015625 18.84375 -35.015625 C 24.796875 -35.015625 28.84375 -34.171875 31.078125 -32.5625 C 33.3125 -30.96875 34.484375 -28.734375 34.484375 -25.765625 L 34.484375 -22.25 C 29.90625 -25.125 24.59375 -26.609375 18.40625 -26.609375 C 13.734375 -26.609375 10.21875 -25.328125 7.875 -22.890625 C 5.421875 -20.4375 4.25 -17.34375 4.25 -13.625 C 4.25 -11.0625 4.6875 -8.9375 5.53125 -7.125 C 6.390625 -5.21875 7.34375 -3.828125 8.515625 -2.875 C 9.578125 -1.921875 10.859375 -1.171875 12.34375 -0.640625 C 13.734375 0 14.90625 0.3125 15.75 0.421875 C 16.609375 0.640625 17.453125 0.640625 18.09375 0.640625 L 19.375 0.640625 C 25.859375 0.640625 30.859375 -1.0625 34.484375 -4.578125 Z M 34.484375 -14.6875 L 34.484375 -12.140625 L 33.640625 -11.0625 C 33 -10.4375 31.71875 -9.6875 29.796875 -9.046875 C 27.890625 -8.40625 25.546875 -8.09375 22.984375 -8.09375 C 16.609375 -8.09375 13.515625 -9.796875 13.515625 -13.296875 C 13.515625 -15 14.15625 -16.28125 15.4375 -17.140625 C 16.703125 -17.984375 19.15625 -18.40625 22.984375 -18.40625 C 28 -18.40625 31.828125 -17.140625 34.484375 -14.6875 Z M 34.484375 -14.6875 "/></g></g></g><g fill="aliceblue" fill-opacity="1"><g transform="translate(195.214163, 134.412806)"><g><path d="M 6.921875 -58.109375 L 6.921875 -4.6875 C 6.921875 -3.40625 7.34375 -2.234375 8.203125 -1.390625 C 9.046875 -0.421875 10.21875 0 11.5 0 C 12.765625 0 13.84375 -0.421875 14.796875 -1.390625 C 15.640625 -2.234375 16.171875 -3.40625 16.171875 -4.6875 L 16.171875 -58.109375 C 16.171875 -59.390625 15.640625 -60.453125 14.796875 -61.421875 C 13.84375 -62.265625 12.765625 -62.796875 11.5 -62.796875 C 10.21875 -62.796875 9.046875 -62.265625 8.203125 -61.421875 C 7.34375 -60.453125 6.921875 -59.390625 6.921875 -58.109375 Z M 6.921875 -58.109375 "/></g></g></g><g fill="aliceblue" fill-opacity="1"><g transform="translate(218.312014, 134.412806)"><g><path d="M 30.546875 -8.296875 L 27.78125 -8.296875 C 24.265625 -8.296875 21.921875 -8.734375 20.859375 -9.796875 C 19.6875 -10.75 19.15625 -13.296875 19.15625 -17.34375 L 19.15625 -34.484375 L 30.65625 -34.484375 C 31.71875 -34.484375 32.5625 -34.8125 33.203125 -35.65625 C 33.84375 -36.515625 34.171875 -37.46875 34.171875 -38.75 C 34.171875 -41.609375 33 -43.109375 30.65625 -43.109375 L 19.15625 -43.109375 L 19.15625 -55.5625 C 19.15625 -56.625 18.625 -57.15625 17.671875 -57.15625 C 17.03125 -57.15625 16.28125 -56.625 15.328125 -55.671875 L 3.515625 -41.828125 C 2.453125 -40.65625 2.015625 -39.59375 2.015625 -38.53125 C 2.015625 -37.359375 2.234375 -36.40625 2.875 -35.65625 C 3.40625 -34.8125 4.25 -34.484375 5.421875 -34.484375 L 9.6875 -34.484375 L 9.6875 -17.03125 C 9.6875 -14.46875 9.796875 -12.34375 10.21875 -10.4375 C 10.640625 -8.515625 11.28125 -6.703125 12.34375 -5 C 13.40625 -3.296875 15 -1.921875 17.140625 -0.953125 C 19.265625 0 21.921875 0.421875 25.125 0.421875 L 30.546875 0.421875 C 31.609375 0.421875 32.5625 0 33.203125 -0.84375 C 33.84375 -1.703125 34.171875 -2.65625 34.171875 -3.9375 C 34.171875 -5.21875 33.84375 -6.171875 33.203125 -7.03125 C 32.5625 -7.875 31.609375 -8.296875 30.546875 -8.296875 Z M 30.546875 -8.296875 "/></g></g></g><g fill="aliceblue" fill-opacity="1"><g transform="translate(256.7375, 134.412806)"><g><path d="M 45.65625 -4.6875 L 45.65625 -27.890625 C 45.65625 -32.140625 44.0625 -35.875 40.984375 -39.0625 C 37.78125 -42.15625 34.375 -43.75 30.65625 -43.75 C 24.265625 -43.75 19.265625 -41.828125 15.640625 -38.21875 L 15.640625 -58.109375 C 15.640625 -59.390625 15.109375 -60.453125 14.265625 -61.421875 C 13.296875 -62.265625 12.234375 -62.796875 10.96875 -62.796875 C 9.6875 -62.796875 8.515625 -62.265625 7.65625 -61.421875 C 6.8125 -60.453125 6.390625 -59.390625 6.390625 -58.109375 L 6.390625 -4.6875 C 6.390625 -3.40625 6.8125 -2.234375 7.65625 -1.390625 C 8.515625 -0.421875 9.6875 0 10.96875 0 C 12.234375 0 13.296875 -0.421875 14.265625 -1.390625 C 15.109375 -2.234375 15.640625 -3.40625 15.640625 -4.6875 L 15.640625 -27.140625 L 16.078125 -27.890625 C 16.28125 -28.421875 16.8125 -29.0625 17.453125 -29.90625 C 18.09375 -30.65625 18.953125 -31.40625 19.796875 -32.25 C 20.65625 -33 21.8125 -33.640625 23.203125 -34.171875 C 24.59375 -34.703125 26.078125 -35.015625 27.671875 -35.015625 C 29.90625 -35.015625 31.9375 -34.265625 33.734375 -33 C 35.4375 -31.71875 36.40625 -29.59375 36.40625 -26.71875 L 36.40625 -4.6875 C 36.40625 -3.40625 36.828125 -2.234375 37.671875 -1.390625 C 38.53125 -0.421875 39.703125 0 40.984375 0 C 42.25 0 43.3125 -0.421875 44.28125 -1.390625 C 45.125 -2.234375 45.65625 -3.40625 45.65625 -4.6875 Z M 45.65625 -4.6875 "/></g></g></g><g fill="aliceblue" fill-opacity="1"><g transform="translate(308.255326, 134.412806)"><g><path d="M 6.390625 -3.71875 C 6.390625 -2.453125 6.8125 -1.484375 7.65625 -0.640625 C 8.515625 0.21875 9.46875 0.640625 10.75 0.640625 C 11.921875 0.640625 12.984375 0.21875 13.84375 -0.640625 C 14.6875 -1.484375 15.21875 -2.453125 15.21875 -3.71875 C 15.21875 -4.890625 14.6875 -5.953125 13.84375 -6.8125 C 12.984375 -7.65625 11.921875 -8.203125 10.75 -8.203125 C 9.46875 -8.203125 8.515625 -7.65625 7.65625 -6.8125 C 6.8125 -5.953125 6.390625 -4.890625 6.390625 -3.71875 Z M 6.390625 -3.71875 "/></g></g></g><g fill="aliceblue" fill-opacity="1"><g transform="translate(329.862998, 134.412806)"><g><path d="M 7.125 -54.390625 C 7.125 -53.109375 7.5625 -52.15625 8.40625 -51.296875 C 9.265625 -50.453125 10.21875 -50.03125 11.5 -50.03125 C 12.671875 -50.03125 13.734375 -50.453125 14.578125 -51.296875 C 15.4375 -52.15625 15.96875 -53.109375 15.96875 -54.390625 C 15.96875 -55.5625 15.4375 -56.625 14.578125 -57.46875 C 13.734375 -58.328125 12.671875 -58.859375 11.5 -58.859375 C 10.21875 -58.859375 9.265625 -58.328125 8.40625 -57.46875 C 7.5625 -56.625 7.125 -55.5625 7.125 -54.390625 Z M 6.921875 -38.421875 L 6.921875 -4.6875 C 6.921875 -3.40625 7.34375 -2.234375 8.203125 -1.390625 C 9.046875 -0.421875 10.21875 0 11.5 0 C 12.765625 0 13.84375 -0.421875 14.796875 -1.390625 C 15.640625 -2.234375 16.171875 -3.40625 16.171875 -4.6875 L 16.171875 -38.421875 C 16.171875 -39.703125 15.640625 -40.765625 14.796875 -41.71875 C 13.84375 -42.578125 12.765625 -43.109375 11.5 -43.109375 C 10.21875 -43.109375 9.046875 -42.578125 8.203125 -41.71875 C 7.34375 -40.765625 6.921875 -39.703125 6.921875 -38.421875 Z M 6.921875 -38.421875 "/></g></g></g><g fill="aliceblue" fill-opacity="1"><g transform="translate(352.960849, 134.412806)"><g><path d="M 26.1875 0.640625 C 27.890625 0.640625 29.703125 0.53125 31.5 0.109375 C 33.3125 -0.3125 35.234375 -1.0625 37.140625 -2.125 C 39.0625 -3.1875 40.875 -4.46875 42.359375 -6.171875 C 43.859375 -7.765625 45.015625 -9.90625 46.09375 -12.671875 C 47.046875 -15.4375 47.578125 -18.515625 47.578125 -22.03125 C 47.578125 -29.0625 45.34375 -34.375 40.875 -38.109375 C 36.40625 -41.828125 31.5 -43.75 26.1875 -43.75 C 20.75 -43.75 15.859375 -41.828125 11.390625 -38.109375 C 6.921875 -34.375 4.796875 -29.0625 4.796875 -22.03125 C 4.796875 -18.515625 5.21875 -15.4375 6.28125 -12.671875 C 7.234375 -9.90625 8.515625 -7.765625 10 -6.171875 C 11.5 -4.46875 13.203125 -3.1875 15.109375 -2.125 C 17.03125 -1.0625 18.953125 -0.3125 20.75 0.109375 C 22.5625 0.53125 24.375 0.640625 26.1875 0.640625 Z M 26.1875 -8.09375 C 18.09375 -8.09375 14.046875 -12.671875 14.046875 -21.8125 C 14.046875 -26.390625 15.21875 -29.703125 17.671875 -31.828125 C 20.109375 -33.953125 22.984375 -35.015625 26.1875 -35.015625 C 29.375 -35.015625 32.140625 -33.953125 34.59375 -31.828125 C 37.046875 -29.703125 38.3125 -26.390625 38.3125 -21.8125 C 38.3125 -12.671875 34.265625 -8.09375 26.1875 -8.09375 Z M 26.1875 -8.09375 "/></g></g></g></svg>